<?xml version="1.0" encoding="UTF-8" standalone="no"?>
<!DOCTYPE svg PUBLIC "-//W3C//DTD SVG 1.1//EN" "http://www.w3.org/Graphics/SVG/1.1/DTD/svg11.dtd">
<svg width="100%" height="100%" viewBox="0 0 896 650" version="1.1" xmlns="http://www.w3.org/2000/svg" xmlns:xlink="http://www.w3.org/1999/xlink" xml:space="preserve" xmlns:serif="http://www.serif.com/" style="fill-rule:evenodd;clip-rule:evenodd;stroke-linejoin:round;stroke-miterlimit:2;">
    <g transform="matrix(1,0,0,1,-64,-187.1)">
        <path d="M960,509.2C960,507 960,504.5 959.9,501.6C959.8,493.5 959.6,484.4 959.4,474.7C958.6,446.8 957.2,419 955,392.8C952,356.7 947.6,326.6 941.6,304C928.73,256.062 891.212,218.467 843.3,205.5C815,197.9 759.6,193.2 681.6,190.3C644.5,188.9 604.8,188 565.1,187.5C551.2,187.3 538.3,187.2 526.7,187.1L497.3,187.1C485.7,187.2 472.8,187.3 458.9,187.5C419.2,188 379.5,188.9 342.4,190.3C264.4,193.3 208.9,198 180.7,205.5C132.77,218.436 95.238,256.044 82.4,304C76.3,326.6 72,356.7 69,392.8C66.8,419 65.4,446.8 64.6,474.7C64.3,484.4 64.2,493.5 64.1,501.6C64.1,504.5 64,507 64,509.2L64,514.8C64,517 64,519.5 64.1,522.4C64.2,530.5 64.4,539.6 64.6,549.3C65.4,577.2 66.8,605 69,631.2C72,667.3 76.4,697.4 82.4,720C95.2,767.9 132.8,805.7 180.7,818.5C208.9,826.1 264.4,830.8 342.4,833.7C379.5,835.1 419.2,836 458.9,836.5C472.8,836.7 485.7,836.8 497.3,836.9L526.7,836.9C538.3,836.8 551.2,836.7 565.1,836.5C604.8,836 644.5,835.1 681.6,833.7C759.6,830.7 815.1,826 843.3,818.5C891.2,805.7 928.8,768 941.6,720C947.7,697.4 952,667.3 955,631.2C957.2,605 958.6,577.2 959.4,549.3C959.7,539.6 959.8,530.5 959.9,522.4C959.9,519.5 960,517 960,514.8L960,509.2ZM888,514.4C888,516.5 888,518.8 887.9,521.5C887.8,529.3 887.6,537.9 887.4,547.2C886.7,573.8 885.3,600.4 883.2,625.1C880.5,657.3 876.7,683.7 872,701.4C865.8,724.5 847.6,742.8 824.6,748.9C803.6,754.5 750.7,759 678.8,761.7C642.4,763.1 603.2,764 564.1,764.5C550.4,764.7 537.7,764.8 526.3,764.8L497.7,764.8L459.9,764.5C420.8,764 381.7,763.1 345.2,761.7C273.3,758.9 220.3,754.5 199.4,748.9C176.4,742.7 158.2,724.5 152,701.4C147.3,683.7 143.5,657.3 140.8,625.1C138.7,600.4 137.4,573.8 136.6,547.2C136.3,537.9 136.2,529.2 136.1,521.5C136.1,518.8 136,516.4 136,514.4L136,509.6C136,507.5 136,505.2 136.1,502.5C136.2,494.7 136.4,486.1 136.6,476.8C137.3,450.2 138.7,423.6 140.8,398.9C143.5,366.7 147.3,340.3 152,322.6C158.2,299.5 176.4,281.2 199.4,275.1C220.4,269.5 273.3,265 345.2,262.3C381.6,260.9 420.8,260 459.9,259.5C473.6,259.3 486.3,259.2 497.7,259.2L526.3,259.2L564.1,259.5C603.2,260 642.3,260.9 678.8,262.3C750.7,265.1 803.7,269.5 824.6,275.1C847.6,281.3 865.8,299.5 872,322.6C876.7,340.3 880.5,366.7 883.2,398.9C885.3,423.6 886.6,450.2 887.4,476.8C887.7,486.1 887.8,494.8 887.9,502.5C887.9,505.2 888,507.6 888,509.6L888,514.4ZM423,646L655,511L423,378L423,646Z" style="fill:rgb(29,29,27);fill-rule:nonzero;"/>
    </g>
</svg>
