<?xml version="1.0" encoding="UTF-8" standalone="no"?>
<!DOCTYPE svg PUBLIC "-//W3C//DTD SVG 1.1//EN" "http://www.w3.org/Graphics/SVG/1.1/DTD/svg11.dtd">
<svg width="100%" height="100%" viewBox="0 0 512 512" version="1.1" xmlns="http://www.w3.org/2000/svg" xmlns:xlink="http://www.w3.org/1999/xlink" xml:space="preserve" xmlns:serif="http://www.serif.com/" style="fill-rule:evenodd;clip-rule:evenodd;stroke-linejoin:round;stroke-miterlimit:2;">
    <g transform="matrix(1.0672,0,0,1.0672,-17.2028,-17.205)">
        <path d="M412.19,118.66C408.95,116.986 405.796,115.15 402.74,113.16C393.853,107.285 385.704,100.361 378.47,92.54C360.37,71.83 353.61,50.82 351.12,36.11L351.22,36.11C349.14,23.9 350,16 350.13,16L267.69,16L267.69,334.78C267.69,339.06 267.69,343.29 267.51,347.47C267.51,347.99 267.46,348.47 267.43,349.03C267.43,349.26 267.43,349.5 267.38,349.74L267.38,349.92C265.617,373.125 252.394,393.984 232.16,405.48C221.766,411.393 210.008,414.496 198.05,414.48C159.64,414.48 128.51,383.16 128.51,344.48C128.51,305.8 159.64,274.48 198.05,274.48C205.321,274.473 212.547,275.617 219.46,277.87L219.56,193.93C177.152,188.452 134.33,200.979 101.56,228.45C87.351,240.796 75.405,255.527 66.26,271.98C62.78,277.98 49.65,302.09 48.06,341.22C47.06,363.43 53.73,386.44 56.91,395.95L56.91,396.15C58.91,401.75 66.66,420.86 79.29,436.97C89.474,449.893 101.507,461.245 115,470.66L115,470.46L115.2,470.66C155.11,497.78 199.36,496 199.36,496C207.02,495.69 232.68,496 261.82,482.19C294.14,466.88 312.54,444.07 312.54,444.07C324.295,430.441 333.642,414.908 340.18,398.14C347.64,378.53 350.13,355.01 350.13,345.61L350.13,176.49C351.13,177.09 364.45,185.9 364.45,185.9C364.45,185.9 383.64,198.2 413.58,206.21C435.06,211.91 464,213.11 464,213.11L464,131.27C453.86,132.37 433.27,129.17 412.19,118.66Z" style="fill:rgb(29,29,27);fill-rule:nonzero;"/>
    </g>
</svg>
